<?xml version="1.0" encoding="UTF-8"?>
<svg width="20px" height="21px" viewBox="0 0 20 21" version="1.1" xmlns="http://www.w3.org/2000/svg" xmlns:xlink="http://www.w3.org/1999/xlink">
    <!-- Generator: Sketch 51.2 (57519) - http://www.bohemiancoding.com/sketch -->
    <title>star</title>
    <desc>Created with Sketch.</desc>
    <defs></defs>
    <g id="Page-1" stroke="none" stroke-width="1" fill="none" fill-rule="evenodd">
        <g id="star" transform="translate(0.000000, -1.000000)" fill-rule="nonzero">
            <g id="Group" transform="translate(0.000000, 1.600000)" fill="#000000" fill-opacity="0.104279891">
                <path d="M20,7.8 C20,8 19.896,8.2 19.688,8.4 L15.325,12.6 L16.358,18.7 C16.366,18.7 16.37,18.8 16.37,18.9 C16.37,19.1 16.326,19.2 16.238,19.3 C16.158,19.4 16.038,19.5 15.877,19.5 C15.725,19.5 15.565,19.5 15.397,19.4 L10,16.5 L4.6034,19.4 C4.4271,19.5 4.2668,19.5 4.1226,19.5 C3.9543,19.5 3.8261,19.4 3.738,19.3 C3.6578,19.2 3.6178,19.1 3.6178,18.9 C3.6178,18.9 3.6258,18.8 3.6418,18.7 L4.6755,12.6 L0.3005,8.4 C0.1002,8.2 -2.22044605e-15,8 -2.22044605e-15,7.8 C-2.22044605e-15,7.5 0.2244,7.3 0.6731,7.3 L6.7067,6.4 L9.411,0.9 C9.563,0.6 9.76,0.4 10,0.4 C10.24,0.4 10.437,0.6 10.589,0.9 L13.293,6.4 L19.327,7.3 C19.776,7.3 20,7.5 20,7.8" id="Shape"></path>
            </g>
            <g id="Group" transform="translate(0.000000, 0.600000)" fill="#FFE061">
                <path d="M20,8.2 C20,8.4 19.896,8.6 19.688,8.8 L15.325,13 L16.358,19.1 C16.366,19.1 16.37,19.2 16.37,19.3 C16.37,19.5 16.326,19.6 16.238,19.7 C16.158,19.8 16.038,19.9 15.877,19.9 C15.725,19.9 15.565,19.9 15.397,19.8 L10,16.9 L4.6034,19.8 C4.4271,19.9 4.2668,19.9 4.1226,19.9 C3.9543,19.9 3.8261,19.8 3.738,19.7 C3.6578,19.6 3.6178,19.5 3.6178,19.3 C3.6178,19.3 3.6258,19.2 3.6418,19.1 L4.6755,13 L0.3005,8.8 C0.1002,8.6 -2.22044605e-15,8.4 -2.22044605e-15,8.2 C-2.22044605e-15,7.9 0.2244,7.7 0.6731,7.7 L6.7067,6.8 L9.411,1.3 C9.563,1 9.76,0.8 10,0.8 C10.24,0.8 10.437,1 10.589,1.3 L13.293,6.8 L19.327,7.7 C19.776,7.7 20,7.9 20,8.2" id="Shape"></path>
            </g>
        </g>
    </g>
</svg>